<svg width="165" height="45" viewBox="0 0 165 45" fill="none" xmlns="http://www.w3.org/2000/svg">
<g id="logo">
<g id="&#208;&#161;&#208;&#187;&#208;&#190;&#208;&#185;_x0020_1">
<path id="Vector" d="M64.6307 34.5001H66.1307V32.2001H65.0307V32.6001C65.0307 33.4001 64.9307 34.0001 64.7307 34.4001L64.6307 34.5001ZM63.9307 34.5001C64.1307 34.4001 64.2307 34.3001 64.3307 34.2001C64.5307 33.8001 64.6307 33.2001 64.6307 32.4001V31.8001H66.7307V34.5001H67.1307V35.7001H66.7307V34.9001H64.2307V35.7001H63.8307V34.5001C63.7307 34.5001 63.9307 34.5001 63.9307 34.5001ZM72.7307 33.2001V33.5001H70.3307C70.3307 33.9001 70.4307 34.1001 70.6307 34.3001C70.8307 34.5001 71.1307 34.6001 71.4307 34.6001C71.6307 34.6001 71.8307 34.6001 72.0307 34.5001C72.2307 34.5001 72.4307 34.4001 72.6307 34.3001V34.8001C72.4307 34.9001 72.2307 34.9001 72.0307 35.0001C71.8307 35.0001 71.6307 35.1001 71.4307 35.1001C70.9307 35.1001 70.5307 35.0001 70.2307 34.7001C69.9307 34.4001 69.8307 34.0001 69.8307 33.5001C69.8307 33.0001 69.9307 32.6001 70.2307 32.3001C70.5307 32.0001 70.9307 31.8001 71.3307 31.8001C71.7307 31.8001 72.1307 31.9001 72.3307 32.2001C72.6307 32.4001 72.7307 32.8001 72.7307 33.2001ZM72.2307 33.1001C72.2307 32.8001 72.1307 32.6001 72.0307 32.4001C71.8307 32.2001 71.6307 32.2001 71.3307 32.2001C71.0307 32.2001 70.8307 32.3001 70.6307 32.4001C70.4307 32.6001 70.3307 32.8001 70.3307 33.1001H72.2307ZM75.2307 31.8001H78.2307V32.2001H77.0307V34.9001H76.5307V32.2001H75.3307L75.2307 31.8001ZM83.3307 31.9001V32.4001C83.2307 32.3001 83.0307 32.3001 82.9307 32.2001C82.8307 32.2001 82.6307 32.1001 82.5307 32.1001C82.2307 32.1001 81.9307 32.2001 81.7307 32.4001C81.5307 32.6001 81.4307 32.9001 81.4307 33.3001C81.4307 33.7001 81.5307 34.0001 81.7307 34.2001C81.9307 34.4001 82.1307 34.5001 82.5307 34.5001C82.6307 34.5001 82.8307 34.5001 82.9307 34.4001C83.0307 34.4001 83.2307 34.3001 83.3307 34.2001V34.7001C83.2307 34.8001 83.0307 34.8001 82.9307 34.8001C82.7307 34.8001 82.6307 34.9001 82.4307 34.9001C81.9307 34.9001 81.6307 34.8001 81.3307 34.5001C81.0307 34.2001 80.9307 33.8001 80.9307 33.3001C80.9307 32.8001 81.0307 32.4001 81.3307 32.1001C81.6307 31.8001 82.0307 31.7001 82.5307 31.7001C82.7307 31.7001 82.8307 31.7001 83.0307 31.7001C83.2307 31.7001 83.1307 31.9001 83.3307 31.9001ZM86.2307 31.8001H86.7307V33.3001L88.2307 31.8001H88.8307L87.6307 33.0001L89.0307 34.9001H88.4307L87.3307 33.3001L86.7307 33.9001V34.9001H86.2307V31.8001ZM94.5307 31.8001V34.9001H94.0307V32.4001L92.5307 34.9001H91.8307V31.8001H92.3307V34.3001L93.8307 31.8001H94.5307ZM100.331 31.8001V34.9001H99.8307V32.4001L98.3307 34.9001H97.6307V31.8001H98.1307V34.3001L99.6307 31.8001H100.331ZM98.1307 30.6001H98.4307C98.4307 30.7001 98.5307 30.8001 98.6307 30.9001C98.7307 31.0001 98.8307 31.0001 99.0307 31.0001C99.2307 31.0001 99.3307 31.0001 99.4307 30.9001C99.5307 30.8001 99.5307 30.7001 99.6307 30.6001H99.9307C99.9307 30.9001 99.8307 31.1001 99.7307 31.2001C99.6307 31.3001 99.3307 31.4001 99.1307 31.4001C98.8307 31.4001 98.6307 31.3001 98.5307 31.2001C98.2307 31.0001 98.1307 30.8001 98.1307 30.6001ZM104.931 31.8001H107.931V32.2001H106.731V34.9001H106.231V32.2001H105.031L104.931 31.8001ZM112.031 35.2001C111.931 35.6001 111.731 35.8001 111.631 35.9001C111.531 36.0001 111.331 36.1001 111.031 36.1001H110.631V35.7001H110.931C111.031 35.7001 111.231 35.7001 111.231 35.6001C111.331 35.5001 111.431 35.4001 111.531 35.1001L111.631 34.9001L110.331 31.8001H110.831L111.831 34.3001L112.831 31.8001H113.331L112.031 35.2001ZM116.731 34.5001V36.2001H116.231V31.9001H116.731V32.4001C116.831 32.2001 116.931 32.1001 117.131 32.0001C117.331 31.9001 117.531 31.9001 117.731 31.9001C118.131 31.9001 118.431 32.1001 118.631 32.4001C118.831 32.7001 119.031 33.1001 119.031 33.6001C119.031 34.1001 118.931 34.5001 118.631 34.8001C118.431 35.1001 118.131 35.3001 117.731 35.3001C117.531 35.3001 117.331 35.3001 117.131 35.2001C116.931 34.8001 116.831 34.6001 116.731 34.5001ZM118.431 33.4001C118.431 33.0001 118.331 32.7001 118.231 32.5001C118.031 32.3001 117.831 32.2001 117.631 32.2001C117.331 32.2001 117.131 32.3001 117.031 32.5001C116.831 32.7001 116.831 33.0001 116.831 33.4001C116.831 33.8001 116.931 34.1001 117.031 34.3001C117.231 34.5001 117.431 34.6001 117.631 34.6001C117.931 34.6001 118.131 34.5001 118.231 34.3001C118.331 34.0001 118.431 33.7001 118.431 33.4001ZM123.131 32.2001C122.831 32.2001 122.631 32.3001 122.431 32.5001C122.231 32.7001 122.231 33.0001 122.231 33.4001C122.231 33.8001 122.331 34.1001 122.431 34.3001C122.631 34.5001 122.831 34.6001 123.131 34.6001C123.431 34.6001 123.631 34.5001 123.831 34.3001C124.031 34.1001 124.031 33.8001 124.031 33.4001C124.031 33.0001 123.931 32.7001 123.831 32.5001C123.631 32.3001 123.431 32.2001 123.131 32.2001ZM123.131 31.7001C123.531 31.7001 123.931 31.8001 124.231 32.1001C124.531 32.4001 124.631 32.8001 124.631 33.3001C124.631 33.8001 124.531 34.2001 124.231 34.5001C123.931 34.8001 123.631 34.9001 123.131 34.9001C122.631 34.9001 122.331 34.8001 122.031 34.5001C121.731 34.2001 121.631 33.8001 121.631 33.3001C121.631 32.8001 121.731 32.4001 122.031 32.1001C122.331 31.9001 122.631 31.7001 123.131 31.7001ZM130.231 31.8001V34.9001H129.731V32.2001H128.031V34.9001H127.531V31.8001H130.231ZM136.031 33.2001V33.5001H133.631C133.631 33.9001 133.731 34.1001 133.931 34.3001C134.131 34.5001 134.431 34.6001 134.731 34.6001C134.931 34.6001 135.131 34.6001 135.331 34.5001C135.531 34.5001 135.731 34.4001 135.931 34.3001V34.8001C135.731 34.9001 135.531 34.9001 135.331 35.0001C135.131 35.1001 134.931 35.1001 134.731 35.1001C134.231 35.1001 133.831 35.0001 133.531 34.7001C133.231 34.4001 133.131 34.0001 133.131 33.5001C133.131 33.0001 133.231 32.6001 133.531 32.3001C133.831 32.0001 134.231 31.8001 134.631 31.8001C135.031 31.8001 135.431 31.9001 135.631 32.2001C135.931 32.4001 136.031 32.8001 136.031 33.2001ZM135.531 33.1001C135.531 32.8001 135.431 32.6001 135.331 32.4001C135.131 32.2001 134.931 32.1001 134.731 32.1001C134.431 32.1001 134.231 32.2001 134.031 32.3001C133.831 32.4001 133.731 32.7001 133.731 33.0001C133.631 33.1001 135.531 33.1001 135.531 33.1001ZM139.431 34.5001V36.2001H138.931V31.9001H139.431V32.4001C139.531 32.2001 139.631 32.1001 139.831 32.0001C140.031 31.9001 140.231 31.9001 140.431 31.9001C140.831 31.9001 141.131 32.1001 141.331 32.4001C141.531 32.7001 141.731 33.1001 141.731 33.6001C141.731 34.1001 141.631 34.5001 141.331 34.8001C141.131 35.1001 140.831 35.3001 140.431 35.3001C140.231 35.3001 140.031 35.3001 139.831 35.2001C139.731 34.8001 139.531 34.6001 139.431 34.5001ZM141.231 33.4001C141.231 33.0001 141.131 32.7001 141.031 32.5001C140.831 32.3001 140.631 32.2001 140.431 32.2001C140.231 32.2001 139.931 32.3001 139.831 32.5001C139.631 32.7001 139.631 33.0001 139.631 33.4001C139.631 33.8001 139.731 34.1001 139.831 34.3001C140.031 34.5001 140.231 34.6001 140.431 34.6001C140.631 34.6001 140.931 34.5001 141.031 34.3001C141.131 34.0001 141.231 33.7001 141.231 33.4001ZM146.131 33.4001C145.731 33.4001 145.431 33.4001 145.231 33.5001C145.031 33.6001 145.031 33.8001 145.031 34.0001C145.031 34.2001 145.131 34.3001 145.231 34.4001C145.331 34.5001 145.531 34.6001 145.731 34.6001C146.031 34.6001 146.231 34.5001 146.431 34.3001C146.631 34.1001 146.731 33.8001 146.731 33.5001V33.4001H146.131ZM147.131 33.1001V34.9001H146.631V34.4001C146.531 34.6001 146.331 34.7001 146.231 34.8001C146.031 34.9001 145.831 34.9001 145.631 34.9001C145.331 34.9001 145.031 34.8001 144.831 34.6001C144.631 34.4001 144.531 34.2001 144.531 33.9001C144.531 33.5001 144.631 33.3001 144.931 33.1001C145.131 32.9001 145.531 32.8001 146.031 32.8001H146.731V32.7001C146.731 32.5001 146.631 32.3001 146.531 32.1001C146.331 32.0001 146.131 31.9001 145.831 31.9001C145.631 31.9001 145.431 31.9001 145.331 32.0001C145.131 32.0001 145.031 32.1001 144.831 32.2001V31.7001C145.031 31.6001 145.231 31.6001 145.331 31.5001C145.531 31.5001 145.731 31.4001 145.831 31.4001C146.331 31.4001 146.631 31.5001 146.831 31.8001C147.031 32.3001 147.131 32.7001 147.131 33.1001ZM149.931 31.8001H152.931V32.2001H151.731V34.9001H151.231V32.2001H150.031L149.931 31.8001ZM156.931 32.2001C156.631 32.2001 156.431 32.3001 156.231 32.5001C156.031 32.7001 156.031 33.0001 156.031 33.4001C156.031 33.8001 156.131 34.1001 156.231 34.3001C156.431 34.5001 156.631 34.6001 156.931 34.6001C157.231 34.6001 157.431 34.5001 157.631 34.3001C157.831 34.1001 157.831 33.8001 157.831 33.4001C157.831 33.0001 157.731 32.7001 157.631 32.5001C157.431 32.3001 157.231 32.2001 156.931 32.2001ZM156.931 31.7001C157.331 31.7001 157.731 31.8001 158.031 32.1001C158.331 32.4001 158.431 32.8001 158.431 33.3001C158.431 33.8001 158.331 34.2001 158.031 34.5001C157.731 34.8001 157.431 34.9001 156.931 34.9001C156.431 34.9001 156.131 34.8001 155.831 34.5001C155.531 34.2001 155.431 33.8001 155.431 33.3001C155.431 32.8001 155.531 32.4001 155.831 32.1001C156.131 31.9001 156.431 31.7001 156.931 31.7001ZM161.831 34.5001V36.2001H161.331V31.9001H161.831V32.4001C161.931 32.2001 162.031 32.1001 162.231 32.0001C162.431 31.9001 162.631 31.9001 162.831 31.9001C163.231 31.9001 163.531 32.1001 163.731 32.4001C163.931 32.7001 164.131 33.1001 164.131 33.6001C164.131 34.1001 164.031 34.5001 163.731 34.8001C163.531 35.1001 163.231 35.3001 162.831 35.3001C162.631 35.3001 162.431 35.3001 162.231 35.2001C162.031 34.8001 161.931 34.6001 161.831 34.5001ZM163.531 33.4001C163.531 33.0001 163.431 32.7001 163.331 32.5001C163.131 32.3001 162.931 32.2001 162.731 32.2001C162.431 32.2001 162.231 32.3001 162.131 32.5001C161.931 32.7001 161.931 33.0001 161.931 33.4001C161.931 33.8001 162.031 34.1001 162.131 34.3001C162.331 34.5001 162.531 34.6001 162.731 34.6001C163.031 34.6001 163.231 34.5001 163.331 34.3001C163.431 34.0001 163.531 33.7001 163.531 33.4001Z" fill="#FECC00"/>
<path id="Vector_2" d="M74.5305 14.1002H74.3305V12.7002H70.8305V14.1002H70.7305C66.2305 14.1002 63.7305 16.8002 63.7305 20.7002C63.7305 24.9002 66.6305 27.2002 70.8305 27.2002V28.7002H74.3305V27.2002C78.8305 27.2002 81.4305 24.5002 81.4305 20.7002C81.5305 16.6002 78.6305 14.1002 74.5305 14.1002ZM70.6305 24.1002C68.8305 24.1002 67.5305 22.6002 67.5305 20.6002C67.5305 18.4002 68.8305 17.1002 70.7305 17.1002H70.9305V24.1002C70.8305 24.1002 70.6305 24.1002 70.6305 24.1002ZM74.6305 24.1002H74.4305V17.1002H74.6305C76.5305 17.1002 77.8305 18.4002 77.8305 20.6002C77.8305 22.6002 76.4305 24.1002 74.6305 24.1002ZM83.9305 28.4002C86.4305 28.4002 88.1305 27.2002 88.1305 23.3002V19.9002H91.1305V28.3002H94.8305V16.7002H84.7305V22.4002C84.7305 24.2002 84.3305 25.2002 83.0305 25.2002H82.3305V28.3002C82.9305 28.4002 83.5305 28.4002 83.9305 28.4002ZM102.33 28.6002C103.33 28.6002 104.73 28.3002 105.53 27.4002V28.4002H109.03V16.7002H105.43V17.5002C104.63 16.7002 103.33 16.4002 102.23 16.4002C99.0305 16.4002 96.8305 18.8002 96.8305 22.5002C96.8305 26.2002 98.9305 28.6002 102.33 28.6002ZM103.23 25.4002C101.53 25.4002 100.53 24.3002 100.53 22.5002C100.53 20.6002 101.63 19.6002 103.13 19.6002C104.13 19.6002 105.03 20.0002 105.43 20.8002V24.1002C105.03 25.0002 104.13 25.4002 103.23 25.4002ZM120.73 16.7002H111.43V28.3002H115.03V19.9002H120.73V16.7002ZM134.03 16.6002L129.13 22.5002L124.23 16.6002H122.43V28.3002H125.73V23.2002L128.53 26.7002H129.63L132.43 23.3002V28.4002H135.83V16.6002H134.03ZM143.23 28.6002C144.23 28.6002 145.63 28.3002 146.43 27.4002V28.4002H149.93V16.7002H146.33V17.5002C145.53 16.7002 144.23 16.4002 143.13 16.4002C139.93 16.4002 137.73 18.8002 137.73 22.5002C137.73 26.2002 139.93 28.6002 143.23 28.6002ZM144.23 25.4002C142.53 25.4002 141.53 24.3002 141.53 22.5002C141.53 20.6002 142.63 19.6002 144.13 19.6002C145.13 19.6002 146.03 20.0002 146.43 20.8002V24.1002C146.03 25.0002 145.13 25.4002 144.23 25.4002ZM160.23 16.7002V21.4002H156.03V16.7002H152.43V28.3002H156.03V24.3002H160.13V28.3002H163.83V16.7002H160.23Z" fill="#393488"/>
</g>
<g id="&#208;&#161;&#208;&#187;&#208;&#190;&#208;&#185;_x0020_1_00000162334666275842497830000008900108177433543313_">
<path id="Vector_3" fill-rule="evenodd" clip-rule="evenodd" d="M23.9301 1.7C21.1301 1.3 20.2301 3.9 23.9301 3.9C25.3301 3.9 29.2301 4.5 28.0301 1.9C27.8301 1.5 24.1301 2.5 24.1301 1.9C24.1301 1.8 24.1301 1.8 23.9301 1.7ZM37.8301 41.1C37.6301 41 37.4301 40.7 37.0301 40.8C36.6301 40.9 36.0301 41.2 35.5301 41.3C35.0301 41.4 34.7301 41.3 34.7301 41.1C34.7301 40.9 34.9301 40.7 35.5301 40.4C36.1301 40.1 36.9301 39.6 37.4301 39.2C37.9301 38.8 38.0301 38.4 38.0301 38C38.1301 37.6 38.1301 37.3 38.3301 37.1C38.6301 36.9 39.1301 36.7 39.4301 36.6C39.7301 36.5 40.0301 36.3 40.2301 36.1C40.4301 35.9 40.7301 35.5 40.9301 35.1C42.6301 32.5 45.0301 33.7 48.2301 32C47.6301 33.8 42.7301 39.1 38.6301 41C38.1301 41.4 37.9301 41.3 37.8301 41.1ZM29.3301 0C40.4301 0 49.5301 8.1 51.2301 18.7C49.0301 24.3 41.1301 30.2 37.1301 32.8C40.3301 31.5 47.2301 27.1 51.5301 22.5C51.5301 23.2 51.4301 23.9 51.4301 24.6C50.0301 25.8 48.3301 27.1 46.4301 28.2C43.1301 30.2 39.2301 32.4 36.2301 33.8C33.1301 35.2 30.9301 36.3 29.8301 36.8C29.6301 36.9 29.4301 37 29.3301 37C29.1301 37.1 29.0301 37.1 29.0301 37.1C29.0301 37.1 29.6301 36.9 30.8301 36.6C32.9301 35.9 37.2301 34.6 41.0301 33.1C44.7301 31.6 48.0301 29.9 50.8301 28.2C48.2301 37.6 39.6301 44.4 29.5301 44.4C22.0301 44.4 15.3301 40.6 11.3301 34.9C14.6301 34.5 18.0301 33.7 21.2301 32.7C21.9301 35 21.7301 38.3 23.6301 36.5C23.7301 36.4 24.1301 38.5 24.5301 37.5C25.5301 35.4 21.3301 35.2 28.0301 31.3C30.0301 30.2 29.9301 31.9 30.3301 32.9V33.1C30.4301 34.1 31.1301 35 32.2301 34.6C32.4301 34.5 32.6301 34.4 32.7301 34.3C32.9301 34.4 33.2301 34.4 33.6301 34.5C33.8301 34.5 33.9301 34.6 34.1301 34.7C35.1301 33.9 36.4301 33.8 37.2301 33.3C36.5301 32.6 35.3301 31.4 36.8301 30.5C37.9301 29.9 38.8301 29.4 39.7301 29C42.5301 27.7 42.4301 27.8 41.1301 25.3C41.0301 25.1 41.0301 24.9 40.9301 24.8C42.3301 22.9 43.7301 21 44.8301 19.1C45.4301 18.2 46.5301 16.8 46.0301 15.7C45.6301 14.9 44.6301 14.7 43.7301 14.6C43.6301 13.6 43.1301 13 41.8301 13.2C40.4301 13.4 40.8301 10.9 41.6301 10.5C42.2301 10.2 42.0301 9.5 41.8301 8.9C41.0301 6.9 42.2301 7.8 43.0301 8.7C44.2301 10 46.0301 12 46.2301 11.2C46.4301 9.6 43.1301 8.8 42.8301 7.5C42.3301 5.5 38.4301 2.5 38.2301 5.8C38.0301 6.9 32.7301 9.8 31.5301 8.1C30.4301 6.5 29.2301 9.6 26.3301 9.8C25.7301 9.8 24.8301 11.1 24.5301 10.5C24.2301 10 22.6301 9.8 20.4301 10.6C19.4301 11 19.3301 9.8 19.9301 9.9C21.3301 10.2 21.8301 8.5 20.5301 8.1C19.8301 7.9 18.6301 7.8 16.4301 8C15.7301 8.1 15.2301 8.7 14.9301 9.3C14.6301 10 14.7301 10.6 15.7301 10.4C17.6301 10 17.1301 10.7 15.9301 11.4C14.3301 12.4 12.1301 12.7 13.8301 10.2C14.5301 9.2 12.6301 10.5 11.6301 9.9C11.2301 9.6 9.83008 12.3 10.4301 10.7C14.3301 4.3 21.3301 0 29.3301 0ZM7.33008 19.7C7.53008 17.5 8.13008 15.4 9.03008 13.4C9.33008 13 9.73008 12.7 9.63008 14.3C9.63008 15.5 10.3301 15.2 9.83008 16.3C9.43008 17.2 10.4301 16.6 10.2301 18.4C10.1301 18.9 10.5301 19.5 10.7301 20.2C10.0301 20.2 9.23008 20.3 8.53008 20.3C8.33008 19.8 8.13008 19.4 7.63008 19.7C7.53008 19.9 7.43008 19.9 7.33008 19.7ZM46.4301 17.5C45.7301 19.7 47.5301 17.7 45.0301 21.4C44.6301 21.9 49.2301 20.3 46.9301 17.4C46.7301 17.1 46.5301 17.1 46.4301 17.5Z" fill="#393488"/>
<path id="Vector_4" fill-rule="evenodd" clip-rule="evenodd" d="M26.7297 18.7999C27.6297 18.4999 27.4297 18.3999 26.7297 17.5999C26.4297 17.1999 25.8297 16.2999 25.2297 15.4999C23.4297 12.8999 23.2297 13.3999 26.5297 13.7999C31.1297 14.3999 37.1297 15.2999 42.3297 15.6999C45.1297 15.8999 45.1297 15.6999 43.4297 18.3999C41.1297 22.0999 37.3297 27.0999 33.7297 30.8999C31.0297 33.7999 31.1297 34.7999 31.0297 30.8999C31.0297 29.8999 30.9297 28.8999 31.0297 28.2999C31.0297 26.9999 31.1297 26.6999 29.6297 27.3999C28.1297 28.0999 25.1297 29.7999 21.6297 31.0999C18.1297 32.3999 14.0297 33.3999 10.7297 33.6999C5.1297 34.2999 -0.970297 33.0999 0.129703 26.8999C9.8297 27.9999 25.3297 23.2999 30.7297 19.3999C24.0297 21.2999 13.0297 23.3999 1.6297 21.6999C10.6297 21.7999 18.5297 21.3999 26.7297 18.7999Z" fill="url(#paint0_linear_135_7018)"/>
<path id="Vector_5" fill-rule="evenodd" clip-rule="evenodd" d="M48.3297 10.6998C54.4297 11.4998 57.0297 14.9998 52.9297 20.6998C51.4297 22.7998 48.8297 24.8998 45.7297 27.1998C42.6297 29.4998 38.9297 31.7998 36.0297 33.4998C33.1297 35.1998 30.8297 36.1998 29.7297 36.6998C28.6297 37.1998 28.6297 37.1998 30.7297 36.3998C32.8297 35.5998 36.9297 33.8998 40.6297 31.9998C44.2297 30.0998 47.4297 28.0998 50.1297 26.1998C52.8297 24.2998 55.0297 22.4998 56.6297 20.6998C59.4297 17.4998 60.4297 14.8998 59.8297 13.0998C58.7297 10.0998 54.1297 9.09981 48.3297 10.6998Z" fill="url(#paint1_linear_135_7018)"/>
</g>
</g>
<defs>
<linearGradient id="paint0_linear_135_7018" x1="37.2335" y1="20.2764" x2="1.80938" y2="32.0952" gradientUnits="userSpaceOnUse">
<stop stop-color="#FECC00"/>
<stop offset="1" stop-color="#F21022"/>
</linearGradient>
<linearGradient id="paint1_linear_135_7018" x1="55.107" y1="20.9355" x2="28.5905" y2="25.5407" gradientUnits="userSpaceOnUse">
<stop stop-color="#FECC00"/>
<stop offset="1" stop-color="#F21022"/>
</linearGradient>
</defs>
</svg>
