<svg width="379" height="266" viewBox="0 0 379 266" fill="none" xmlns="http://www.w3.org/2000/svg">
<path d="M370 178.5C385.5 226.16 344.5 246 162.909 232.94C76.9996 247.5 19.8764 250.841 7.99975 215.001C-8.62356 138.341 42.4997 87 164.494 121.372C229.5 154.5 337.062 122.047 370 178.5Z" stroke="#393488" stroke-width="2" stroke-miterlimit="10" stroke-linecap="round" stroke-linejoin="round" stroke-dasharray="8.02 8.02"/>
<path d="M115.899 170.872L130.217 209.781C131.196 212.449 129.82 215.406 127.125 216.379L120.642 218.733C122.771 217.962 124.074 215.953 124.041 213.823L125.579 213.269C126.736 212.851 127.327 211.581 126.906 210.448L112.969 172.592C112.548 171.451 111.278 170.856 110.12 171.274L108.607 171.82C107.255 170.117 104.916 169.386 102.755 170.165L109.238 167.811C109.578 167.69 109.918 167.602 110.258 167.545C110.565 167.505 110.873 167.481 111.172 167.497C111.205 167.497 111.237 167.497 111.278 167.497C111.399 167.497 111.52 167.513 111.634 167.529C111.99 167.57 112.33 167.65 112.678 167.77C112.953 167.851 113.212 167.971 113.463 168.116C114.555 168.687 115.43 169.643 115.883 170.872H115.899Z" fill="#6454C6"/>
<path d="M112.977 172.584L126.914 210.44C127.335 211.582 126.744 212.843 125.587 213.261L124.049 213.815C124.049 213.261 123.936 212.682 123.734 212.128L109.416 173.219C109.222 172.696 108.955 172.222 108.631 171.804L110.144 171.258C111.302 170.84 112.581 171.435 112.993 172.576L112.977 172.584Z" fill="white"/>
<path d="M124.041 213.815C124.074 215.945 122.77 217.954 120.642 218.725L100.99 225.845H100.966L97.1702 227.227L94.208 228.304C92.9777 228.754 91.6989 228.706 90.5658 228.272C90.5254 228.256 90.4768 228.239 90.4282 228.215L90.2583 228.135C90.1692 228.087 90.0802 228.047 89.9993 228.006C89.9507 227.982 89.9102 227.966 89.8617 227.95C89.8455 227.95 89.8293 227.934 89.805 227.918C89.805 227.918 89.7484 227.886 89.716 227.87C89.6836 227.846 89.6512 227.838 89.627 227.806C89.6027 227.806 89.6027 227.789 89.5865 227.789C89.5379 227.757 89.4975 227.725 89.4489 227.693C89.3922 227.653 89.3356 227.613 89.287 227.573C89.2547 227.548 89.2223 227.516 89.1899 227.5C89.1413 227.46 89.0847 227.412 89.0442 227.372C88.7933 227.171 88.5586 226.922 88.3563 226.656C88.3401 226.64 88.332 226.616 88.3158 226.6C88.2106 226.464 88.1134 226.327 88.0163 226.174C87.8383 225.885 87.6845 225.58 87.5631 225.242L73.2373 186.341C72.258 183.673 73.6339 180.724 76.3291 179.744L102.763 170.165C104.924 169.377 107.263 170.109 108.615 171.82C108.947 172.238 109.214 172.712 109.408 173.227L110.007 174.85L113.657 184.774L113.795 185.144L115.26 189.121L116.271 191.878L117.858 196.177L119.565 200.813L120.011 202.019L120.998 204.719L123.734 212.144C123.928 212.698 124.041 213.269 124.041 213.831V213.815Z" fill="#7860DB"/>
<path d="M135.356 182.918L130.573 224.069C130.5 224.655 130.338 225.218 130.095 225.716C129.164 227.637 127.084 228.85 124.834 228.593L96.8787 225.395C95.5838 225.25 94.4587 224.631 93.6332 223.747C93.6008 223.707 93.5684 223.675 93.5442 223.627L93.4228 223.482C93.358 223.402 93.3013 223.329 93.2447 223.249C93.2123 223.209 93.188 223.177 93.1557 223.137C93.1476 223.12 93.1314 223.096 93.1233 223.088V223.072C93.099 223.048 93.0828 223.024 93.0666 222.992C93.0504 222.96 93.0262 222.936 93.01 222.895C93.01 222.879 92.9938 222.871 92.9857 222.863C92.9614 222.815 92.929 222.767 92.9129 222.719C92.8562 222.622 92.8076 222.518 92.7672 222.429C92.7429 222.373 92.7186 222.309 92.6862 222.253C92.5567 221.955 92.4596 221.634 92.3949 221.312C92.3949 221.288 92.3949 221.264 92.3868 221.248C92.3544 221.079 92.322 220.911 92.3139 220.734C92.2815 220.388 92.2896 220.051 92.3301 219.689L97.1135 178.538C97.4372 175.717 100.011 173.701 102.86 174.022L130.815 177.22C133.106 177.485 134.862 179.173 135.299 181.302C135.405 181.817 135.429 182.363 135.364 182.918H135.356Z" fill="#FF7643"/>
<path d="M142.219 183.705L137.436 224.856C137.112 227.676 134.538 229.701 131.689 229.38L124.834 228.592C127.084 228.85 129.164 227.636 130.095 225.716L131.722 225.9C132.944 226.037 134.045 225.169 134.182 223.964L138.836 183.93C138.974 182.724 138.108 181.623 136.885 181.487L135.291 181.302C134.854 179.172 133.098 177.485 130.807 177.22L137.671 178.007C138.027 178.047 138.375 178.12 138.698 178.224C138.99 178.321 139.273 178.441 139.54 178.586C139.573 178.594 139.597 178.618 139.637 178.634C139.743 178.69 139.848 178.755 139.945 178.819C140.244 179.012 140.519 179.237 140.77 179.494C140.973 179.687 141.159 179.912 141.313 180.153C142.025 181.149 142.381 182.395 142.235 183.697L142.219 183.705Z" fill="#D85A3D"/>
<path d="M138.837 183.93L134.183 223.965C134.045 225.17 132.945 226.038 131.723 225.901L130.096 225.716C130.339 225.21 130.508 224.656 130.573 224.069L135.357 182.918C135.421 182.371 135.397 181.817 135.292 181.303L136.886 181.488C138.117 181.624 138.983 182.733 138.837 183.93Z" fill="white"/>
<path d="M269.824 161.31L269.145 251.479L240.728 241.844L212.206 251.045C212.206 251.045 212.189 251.005 212.189 250.989C212.189 251.005 212.173 251.029 212.173 251.045L183.789 241.419L155.234 250.628L155.914 160.458L184.469 151.241L212.869 160.884L241.408 151.659L269.824 161.31Z" fill="#E3EEF1"/>
<path d="M265.154 166.927L264.588 242.736L240.776 234.668L212.238 243.869L183.829 234.243L159.904 241.957L160.479 166.155L184.404 158.417L212.804 168.068L241.351 158.843L265.154 166.927Z" fill="#EAE6FF"/>
<path d="M265.162 166.911L264.596 242.713L240.784 234.645L232.974 237.16C232.391 233.279 231.671 229.076 235.135 227.139C237.919 225.781 245.203 225.837 248.328 225.17C256.664 223.162 261.52 223.547 259.497 215.608C258.145 210.095 260.703 193.236 251.67 196.274C244.022 198.974 252.269 208.327 242.88 211.703C237.312 213.728 233.168 211.285 230.02 215.736C228.619 217.794 231.039 218.846 227.551 220.887C224.419 222.928 223.723 222.229 221.311 220.156C219.587 218.766 215.152 209.091 215.176 206.68C215.572 199.794 223.52 202.952 227.017 199.882C229.809 197.841 229.858 191.292 230.57 188.198C231.646 183.73 235.483 180.315 236.559 176.192C237.539 172.062 234.083 166.566 232.958 161.543L241.359 158.827L265.162 166.911Z" fill="#FF7643"/>
<path d="M227.268 166.139C226.2 169.916 222.736 169.546 221.676 171.603C219.563 176.063 225.755 182.653 222.598 187.104C218.746 192.585 207.698 185.618 203.141 192.127C201.733 194.521 203.789 198.33 202.729 200.733C201.32 203.136 198.204 203.112 195.768 204.47C193.672 205.836 192.62 207.547 190.879 208.568C190.175 209.251 186.363 209.564 185.659 210.256C181.814 214.016 185.602 217.825 178.302 220.188C175.17 221.192 173.769 222.912 171.722 218.757C171.042 217.03 170.71 215.31 171.762 213.598C173.162 211.541 176.626 212.256 178.027 210.89C179.775 208.833 179.095 207.451 179.119 204.357C179.492 201.255 179.54 194.377 180.6 191.629C182.365 187.506 186.525 187.538 185.529 181.68C184.186 175.469 175.526 174.03 173.834 168.164C173.332 165.183 175.145 162.491 177.743 160.57L184.396 158.425L212.797 168.068L227.398 163.351C227.503 164.379 227.471 165.36 227.26 166.155L227.268 166.139Z" fill="#FF7643"/>
<path d="M205.294 229.678C198.527 229.968 198.471 215.889 207.455 217.496C211.178 221.409 212.1 229.51 205.294 229.678Z" fill="#FF7643"/>
<path d="M197.67 238.919L183.838 234.227L165.433 240.165C167.99 236.469 169.852 235.207 175.428 234.966C178.552 234.99 179.58 236.027 182.373 234.323C184.113 232.957 183.789 230.201 185.877 229.534C192.287 226.81 195.185 232.836 197.678 238.919H197.67Z" fill="#FF7643"/>
<g style="mix-blend-mode:multiply" opacity="0.5">
<path d="M184.469 151.241L183.789 241.419L155.227 250.628L155.906 160.466L184.469 151.241Z" fill="#AAB6D0"/>
</g>
<g style="mix-blend-mode:multiply" opacity="0.5">
<path d="M241.408 151.659L240.728 241.837L212.206 251.038C212.206 251.038 212.19 250.997 212.182 250.981L212.862 160.884L241.4 151.659H241.408Z" fill="#AAB6D0"/>
</g>
<path d="M304 61.5369C304 66.7702 308.191 71 313.388 71C313.929 71 314.483 70.9492 314.999 70.8603L364.757 70.7078C369.325 70.7078 373 66.9734 373 62.3753C373 57.7771 369.325 54.0681 364.757 54.0681C364.606 45.1767 357.395 38 348.549 38C343.15 38 338.368 40.6547 335.436 44.7575C333.611 43.7921 331.522 43.2587 329.332 43.2587C323.38 43.2587 318.346 47.209 316.672 52.6582C315.641 52.2771 314.546 52.0612 313.388 52.0612C308.203 52.0612 304 56.3037 304 61.5497V61.5369Z" fill="#D3DFFF"/>
<path d="M2 153.684C2 158.283 5.70472 162 10.2995 162C10.7779 162 11.2674 161.955 11.7235 161.877L55.7129 161.743C59.7514 161.743 63 158.462 63 154.421C63 150.38 59.7514 147.12 55.7129 147.12C55.5794 139.307 49.2046 133 41.3836 133C36.6108 133 32.3832 135.333 29.791 138.938C28.1778 138.09 26.331 137.621 24.3952 137.621C19.133 137.621 14.6828 141.093 13.2032 145.881C12.2909 145.547 11.323 145.357 10.2995 145.357C5.71585 145.357 2 149.085 2 153.695L2 153.684Z" fill="#D3DFFF"/>
<path d="M146 98.1178C146 101.924 149.037 105 152.803 105C153.195 105 153.596 104.963 153.97 104.898L190.027 104.788C193.337 104.788 196 102.072 196 98.7275C196 95.3834 193.337 92.6859 190.027 92.6859C189.918 86.2194 184.692 81 178.282 81C174.37 81 170.904 82.9307 168.779 85.9145C167.457 85.2125 165.943 84.8245 164.357 84.8245C160.043 84.8245 156.396 87.6975 155.183 91.6605C154.435 91.3834 153.642 91.2263 152.803 91.2263C149.046 91.2263 146 94.3118 146 98.127V98.1178Z" fill="#D3DFFF"/>
<path d="M90.1211 229.123V258.607C90.1211 262.689 93.4557 266 97.5754 266H150.516C154.628 266 157.962 262.689 157.962 258.607V229.123C157.962 225.041 154.628 221.73 150.516 221.73H97.5754C93.4638 221.73 90.1211 225.041 90.1211 229.123Z" fill="#D9D0FD"/>
<path d="M157.962 232.868H90.1211V257.417H157.962V232.868Z" fill="#B4A5F5"/>
<g style="mix-blend-mode:multiply" opacity="0.15">
<path d="M107.15 248.129C107.15 257.386 114.71 264.891 124.042 264.891C133.374 264.891 140.933 257.386 140.933 248.129C140.933 238.872 133.366 231.366 124.042 231.366C114.718 231.366 107.15 238.872 107.15 248.129ZM111.675 248.129C111.675 241.363 117.227 235.85 124.042 235.85C130.857 235.85 136.409 241.355 136.409 248.129C136.409 254.903 130.865 260.399 124.042 260.399C117.219 260.399 111.675 254.895 111.675 248.129Z" fill="#4D4D4D"/>
</g>
<path d="M107.15 245.147C107.15 254.405 114.71 261.91 124.042 261.91C133.374 261.91 140.933 254.405 140.933 245.147C140.933 235.89 133.366 228.385 124.042 228.385C114.718 228.385 107.15 235.89 107.15 245.147ZM111.675 245.147C111.675 238.381 117.227 232.869 124.042 232.869C130.857 232.869 136.409 238.373 136.409 245.147C136.409 251.922 130.865 257.418 124.042 257.418C117.219 257.418 111.675 251.914 111.675 245.147Z" fill="#7860DB"/>
<path d="M111.674 245.147C111.674 251.913 117.226 257.417 124.041 257.417C130.856 257.417 136.408 251.913 136.408 245.147C136.408 238.381 130.864 232.868 124.041 232.868C117.218 232.868 111.674 238.373 111.674 245.147Z" fill="#D9D0FD"/>
<path d="M134.863 225.299C134.863 226.464 135.632 227.412 136.579 227.412H149.205C150.152 227.412 150.921 226.464 150.921 225.299V218.171C150.921 217.006 150.152 216.058 149.205 216.058H136.579C135.632 216.058 134.863 217.006 134.863 218.171V225.299Z" fill="#7860DB"/>
<path d="M149.148 218.235H136.627V225.226H149.148V218.235Z" fill="#D9D0FD"/>
<path opacity="0.89" d="M115.131 241.628C115.131 244.071 117.122 246.047 119.582 246.047C122.043 246.047 124.042 244.071 124.042 241.628C124.042 239.185 122.051 237.208 119.582 237.208C117.114 237.208 115.131 239.193 115.131 241.628Z" fill="white"/>
<path opacity="0.89" d="M117.777 248.956C117.777 249.952 118.587 250.756 119.59 250.756C120.594 250.756 121.403 249.952 121.403 248.956C121.403 247.96 120.594 247.156 119.59 247.156C118.587 247.156 117.777 247.96 117.777 248.956Z" fill="white"/>
<path d="M102.051 221.168V221.739H112.557V221.168C112.557 220.003 111.602 219.055 110.428 219.055H104.172C102.998 219.055 102.043 220.003 102.043 221.168H102.051Z" fill="#7860DB"/>
</svg>
