<svg width="236" height="154" viewBox="0 0 236 154" fill="none" xmlns="http://www.w3.org/2000/svg">
<path d="M231.633 106.983C244.015 128.205 226.098 169.844 112.464 140.906C55.4903 126.397 12.9326 159.082 4.16323 136.267C-16.2646 83.126 67.1586 21.6536 113.548 64.5706C155.952 103.799 209.097 68.3574 231.633 106.983Z" stroke="#393488" stroke-width="2" stroke-miterlimit="10" stroke-linecap="round" stroke-linejoin="round" stroke-dasharray="8.02 8.02"/>
<path d="M200.78 153.377H113.632C109.575 153.377 106.286 150.087 106.286 146.031V21.0234C106.286 16.9659 109.576 13.6774 113.632 13.6774H200.78C204.837 13.6774 208.126 16.9669 208.126 21.0234V146.031C208.126 150.087 204.836 153.377 200.78 153.377Z" fill="#8FA9FF"/>
<path d="M199.318 19.302H115.495V141.064H199.318V19.302Z" fill="#F6F5F5"/>
<path d="M199.319 19.303C199.344 66.784 200.877 124.048 195.544 136.726C172.052 139.015 144.546 139.75 115.495 139.886L126.538 19.6697L199.319 19.303Z" fill="#E4E4E4"/>
<path d="M191.789 132.89C155.174 138.75 130.702 139.059 110.854 137.585C113.426 110.206 114.457 64.7201 115.494 19.3088L159.617 19.4067L199.549 22.0428C200.13 69.176 200.195 112.713 191.789 132.89Z" fill="white"/>
<path d="M178.845 31.5631L134.751 30.5266L134.593 37.2429L178.687 38.2795L178.845 31.5631Z" fill="#A392EE"/>
<path d="M187.345 47.999L147.572 47.0641L147.5 50.1382L187.273 51.0731L187.345 47.999Z" fill="#A392EE"/>
<path d="M174.449 54.4027L147.415 53.7672L147.343 56.8413L174.377 57.4768L174.449 54.4027Z" fill="#D3DFFF"/>
<path d="M135.042 46.9529L125.626 46.7316L125.405 56.1475L134.821 56.3688L135.042 46.9529Z" fill="white" stroke="#A392EE" stroke-width="0.606612" stroke-miterlimit="10"/>
<path d="M127.16 49.2137C127.451 50.3266 127.988 54.9881 130.322 53.6853C130.861 53.3848 131.317 52.5901 131.719 52.1325C132.442 51.3101 133.167 50.4887 133.89 49.6664C135.338 48.0226 136.786 46.3789 138.235 44.7351C138.605 44.314 136.967 43.2574 136.502 43.7862C135.215 45.2471 133.928 46.709 132.641 48.1699C131.998 48.9003 131.354 49.6308 130.711 50.3612C130.264 50.8683 129.231 52.5031 128.569 52.6484C128.929 52.7651 129.289 52.8807 129.65 52.9974C129.905 53.2059 129.432 51.7253 129.421 51.6847C129.241 50.9968 129.062 50.3098 128.882 49.6219C128.733 49.0555 126.941 48.3725 127.16 49.2137Z" fill="#FF7A45"/>
<path d="M179.926 64.9496L147.174 64.1797L147.102 67.2538L179.854 68.0237L179.926 64.9496Z" fill="#A392EE"/>
<path d="M186.787 71.8178L147.014 70.8828L146.941 73.9569L186.715 74.8918L186.787 71.8178Z" fill="#D3DFFF"/>
<path d="M134.64 64.0666L125.224 63.8452L125.002 73.2611L134.418 73.4825L134.64 64.0666Z" fill="white" stroke="#A392EE" stroke-width="0.606612" stroke-miterlimit="10"/>
<path d="M126.752 66.5944C127.043 67.7074 127.579 72.3688 129.914 71.066C130.453 70.7656 130.908 69.9709 131.311 69.5132C132.034 68.6909 132.759 67.8695 133.482 67.0471C134.93 65.4033 136.378 63.7596 137.826 62.1158C138.197 61.6948 136.559 60.6381 136.094 61.167C134.807 62.6278 133.52 64.0897 132.233 65.5506C131.589 66.2811 130.946 67.0115 130.302 67.742C129.856 68.249 128.823 69.8839 128.161 70.0292C128.521 70.1458 128.881 70.2615 129.242 70.3781C129.497 70.5867 129.023 69.106 129.013 69.0655C128.833 68.3775 128.654 67.6906 128.474 67.0026C128.325 66.4363 126.533 65.7532 126.752 66.5944Z" fill="#FF7A45"/>
<path d="M186.539 82.2349L146.766 81.2999L146.693 84.374L186.467 85.309L186.539 82.2349Z" fill="#A392EE"/>
<path d="M164.394 88.4228L146.606 88.0046L146.534 91.0787L164.322 91.4968L164.394 88.4228Z" fill="#D3DFFF"/>
<path d="M134.236 81.1829L124.82 80.9615L124.599 90.3774L134.015 90.5988L134.236 81.1829Z" fill="white" stroke="#A392EE" stroke-width="0.606612" stroke-miterlimit="10"/>
<path d="M126.479 83.8328C126.769 84.9458 127.306 89.6072 129.641 88.3045C130.179 88.004 130.635 87.2093 131.037 86.7516C131.761 85.9293 132.485 85.1079 133.209 84.2855C134.657 82.6418 136.105 80.998 137.553 79.3542C137.924 78.9332 136.286 77.8765 135.819 78.4054C134.532 79.8663 133.245 81.3281 131.959 82.789C131.315 83.5195 130.672 84.2499 130.028 84.9804C129.581 85.4874 128.548 87.1223 127.886 87.2676C128.247 87.3842 128.607 87.4999 128.968 87.6165C129.223 87.8251 128.749 86.3444 128.738 86.3039C128.558 85.6159 128.379 84.929 128.2 84.241C128.051 83.6747 126.258 82.9917 126.479 83.8328Z" fill="#FF7A45"/>
<path d="M186.139 99.3573L146.366 98.4224L146.294 101.496L186.067 102.431L186.139 99.3573Z" fill="#A392EE"/>
<path d="M177.627 105.864L146.207 105.125L146.135 108.199L177.554 108.938L177.627 105.864Z" fill="#D3DFFF"/>
<path d="M133.833 98.3092L124.417 98.0879L124.196 107.504L133.612 107.725L133.833 98.3092Z" fill="white" stroke="#A392EE" stroke-width="0.606612" stroke-miterlimit="10"/>
<path d="M126.076 100.848C126.367 101.961 126.904 106.623 129.238 105.32C129.777 105.019 130.233 104.225 130.635 103.767C131.359 102.945 132.083 102.123 132.807 101.301C134.255 99.6573 135.703 98.0135 137.151 96.3698C137.521 95.9487 135.884 94.892 135.417 95.4209C134.13 96.8818 132.843 98.3436 131.556 99.8045C130.913 100.535 130.269 101.265 129.626 101.996C129.179 102.503 128.146 104.138 127.484 104.283C127.845 104.4 128.204 104.515 128.565 104.632C128.82 104.841 128.347 103.36 128.336 103.319C128.156 102.631 127.977 101.944 127.797 101.257C127.649 100.689 125.856 100.006 126.076 100.848Z" fill="#FF7A45"/>
<path d="M161.728 115.779L145.962 115.409L145.89 118.483L161.655 118.853L161.728 115.779Z" fill="#A392EE"/>
<path d="M185.58 123.057L145.806 122.121L145.733 125.195C161.121 125.556 180.715 126.277 184.713 125.664C185.32 124.974 185.647 124.127 185.58 123.057Z" fill="#D3DFFF"/>
<path d="M133.566 115.296L124.15 115.074L123.929 124.49L133.345 124.712L133.566 115.296Z" fill="white" stroke="#A392EE" stroke-width="0.606612" stroke-miterlimit="10"/>
<path d="M125.682 117.701C125.972 118.814 126.509 123.475 128.844 122.173C129.383 121.872 129.838 121.077 130.24 120.62C130.964 119.797 131.688 118.976 132.412 118.154C133.86 116.51 135.308 114.866 136.756 113.222C137.127 112.801 135.489 111.745 135.022 112.274C133.736 113.734 132.449 115.196 131.162 116.657C130.518 117.388 129.875 118.118 129.231 118.85C128.784 119.357 127.752 120.991 127.089 121.137C127.45 121.253 127.81 121.369 128.171 121.486C128.426 121.694 127.952 120.214 127.941 120.173C127.761 119.485 127.583 118.798 127.403 118.11C127.254 117.542 125.461 116.859 125.682 117.701Z" fill="#FF7A45"/>
<path d="M176.085 14.5222V23.9202H138.327V14.5222C138.327 13.0238 138.936 11.6676 139.917 10.6832C140.039 10.5606 140.166 10.4459 140.3 10.3392C141.237 9.56031 142.443 9.09377 143.756 9.09377C144.74 9.09377 145.685 8.86841 146.531 8.46118C146.899 8.28326 147.247 8.07371 147.575 7.83254C148.654 7.03389 149.481 5.89917 149.892 4.54701C150.311 3.16716 151.169 2.01268 152.28 1.21008C153.348 0.44306 154.648 0.000244141 156.028 0.000244141H158.385C159.764 0.000244141 161.065 0.44306 162.133 1.21008C163.244 2.01268 164.102 3.16716 164.521 4.54701C164.932 5.89917 165.758 7.03389 166.838 7.83254C167.166 8.07371 167.514 8.28326 167.881 8.46118C168.727 8.86841 169.672 9.09377 170.657 9.09377C171.969 9.09377 173.175 9.56031 174.112 10.3392C175.318 11.3316 176.085 12.8379 176.085 14.5222Z" fill="#FF7A45"/>
<path d="M179.149 19.3071V26.2933H135.263V19.3071H138.327V23.9211H176.085V19.3071H179.149Z" fill="#E4E4E4"/>
<path d="M157.206 8.81505C159.056 8.81505 160.555 7.3901 160.555 5.63232C160.555 3.87454 159.056 2.44958 157.206 2.44958C155.357 2.44958 153.857 3.87454 153.857 5.63232C153.857 7.3901 155.357 8.81505 157.206 8.81505Z" fill="white"/>
<path d="M84.8439 49.6306C83.5046 49.3775 82.2533 47.1397 81.8184 46.2818C81.7116 46.0712 81.678 45.833 81.7225 45.6007L82.2552 42.7758C82.2552 42.7758 83.4848 42.9854 83.39 44.6222C83.3801 44.7922 83.4147 44.9622 83.476 45.1204L83.9464 46.3519L85.3382 45.2746L84.5751 43.1198C84.5751 43.1198 83.554 43.4005 83.0262 43.2325C81.9429 42.8865 83.3633 42.0424 83.812 41.9525C84.2608 41.8625 85.2492 41.5037 85.6979 42.2668C86.1467 43.0298 86.4165 43.4786 86.4165 43.4786C86.4165 43.4786 86.9107 41.7726 86.5737 37.9562C86.5589 37.7843 86.9888 37.7882 87.1094 37.9108C87.4712 38.2785 88.0474 39.3994 88.0781 42.8055C88.0781 42.8055 88.1384 38.836 88.8194 38.4277C89.3808 38.0907 89.6645 40.0339 89.2691 43.3284C89.2691 43.3284 90.0016 40.4757 90.5264 40.4708C91.411 40.4619 90.5383 48.0896 88.3143 50.363L84.8439 49.6306Z" fill="#F9B384"/>
<path d="M89.0432 48.4636C89.0037 48.8432 88.9602 49.2109 88.9128 49.5667V49.5707C88.7546 50.8358 88.5569 51.9666 88.3276 52.9353C88.3158 52.9827 88.3078 53.0262 88.296 53.0697C87.6199 55.8412 87.4973 57.1974 85.1884 56.8336L82.8122 54.1293L82.7885 54.1016L82.6145 53.9039L83.0969 52.4806L83.1601 52.2948L83.5159 51.2589L83.5594 51.1245L84.1683 49.3413L84.4134 48.6178L89.0432 48.4636Z" fill="#F9B384"/>
<path d="M44.8973 146.939L44.2923 148.829C40.1449 150.191 37.7262 151.752 37.571 153.573H49.5636L50.5254 147.244C48.0968 147.837 46.1496 147.425 44.8973 146.939Z" fill="#1F3C88"/>
<path d="M46.4009 142.24L44.8975 146.939C46.1498 147.424 48.097 147.837 50.5256 147.244L51.1453 143.162L46.4009 142.24Z" fill="#F9B384"/>
<path d="M66.904 146.728L67.2559 141.942L61.6219 142.238L61.3145 146.651C63.6995 147.411 65.6714 147.113 66.904 146.728Z" fill="#F9B384"/>
<path d="M73.6816 153.572C73.5264 151.752 71.4082 149.256 66.7626 148.663L66.9049 146.727C65.6714 147.113 63.7004 147.41 61.3154 146.65L60.832 153.572H73.6816Z" fill="#1F3C88"/>
<path d="M62.3384 50.8582L55.542 50.9056V40.626H62.1328L62.1368 41.2546L62.1684 44.5125L62.2159 49.7432L62.3384 50.8582Z" fill="#F9B384"/>
<path d="M62.1677 45.0087C60.946 46.2937 57.7593 44.8427 56.415 43.4272L62.1361 41.7509L62.1677 45.0087Z" fill="#E28B6D"/>
<path d="M63.7445 38.2538C63.7405 39.0129 63.6931 39.8076 63.5666 40.5668C63.2345 42.6385 62.3567 44.4295 60.3324 44.4849C55.5485 44.6232 54.1844 41.8873 53.283 39.6495C52.3815 37.4077 53.8444 32.0188 53.8444 32.0188L60.0359 31.406L63.4361 34.1934C63.4361 34.1934 63.7643 36.0872 63.7445 38.2538Z" fill="#F9B384"/>
<path d="M53.4774 38.3678C53.4774 38.3678 54.8424 38.3046 55.0757 34.7818C57.5161 35.5983 59.2992 34.854 60.7127 33.229C61.9185 34.8213 65.293 35.3205 66.4337 32.0597C67.257 29.7043 64.9837 26.1954 61.6724 28.3205C58.4274 26.6807 53.5051 26.7933 52.0886 30.8153C52.0886 30.8153 47.1643 33.0857 52.3783 38.0842C52.483 38.184 53.4774 38.3678 53.4774 38.3678Z" fill="#102048"/>
<path d="M72.2995 87.8037L68.5425 144.609H59.7129L61.92 89.487L63.2712 88.8613L72.2995 87.8037Z" fill="#102048"/>
<path d="M49.3031 80.0318L43.1086 144.609H52.729L61.8887 90.9698L72.2998 87.8068L72.7614 76.341L49.566 75.8142L49.3031 80.0318Z" fill="#1F3C88"/>
<path opacity="0.6" d="M50.6826 80.1732C55.9371 82.0591 68.2667 79.9033 70.8268 77.2761L69.0081 73.6377L48.7295 76.3321L50.6826 80.1732Z" fill="#102048"/>
<path d="M70.3515 76.3997C70.1814 76.4709 70.0075 76.546 69.8296 76.6132C67.8646 77.4119 65.6268 78.1117 63.2427 78.5742C61.8194 78.855 60.3367 79.0447 58.8264 79.1159C56.5491 79.2306 54.2085 79.0803 51.8916 78.5545L54.8371 51.092L55.1969 47.7432C55.1969 47.7432 59.0518 52.4877 63.302 47.249L70.3515 76.3997Z" fill="white"/>
<path opacity="0.3" d="M58.8264 79.1159C56.5491 79.2305 54.2085 79.0803 51.8916 78.5544L54.8371 51.092L55.8888 49.5718C58.4864 55.8898 61.1472 69.88 58.8264 79.1159Z" fill="#1F3C88"/>
<path d="M55.5419 46.6548C58.4706 59.0892 59.6755 71.8844 55.361 86.093C52.1615 87.3098 48.6773 87.2959 44.9499 86.2245L45.8721 60.3939L24.1594 75.3192L22.8418 67.1814C31.1881 59.2009 45.6191 47.1441 55.5419 46.6548Z" fill="#A392EE"/>
<path opacity="0.3" d="M69.8294 76.6138C67.8644 77.4124 65.6266 78.1123 63.2425 78.5748C61.9339 71.0707 61.6452 58.743 62.7088 53.1802L69.8294 76.6138Z" fill="#1F3C88"/>
<path opacity="0.6" d="M88.3243 52.9329C88.3124 52.9803 88.3045 53.0238 88.2927 53.0673C87.6166 55.8388 87.494 57.195 85.1851 56.8312L82.8089 54.1269L82.7852 54.0992L83.0935 52.4782L83.1568 52.2924L83.5126 51.2565L83.5561 51.1221L88.3243 52.9329Z" fill="#E28B6D"/>
<path d="M87.9148 55.4516C87.9148 55.4516 82.0831 67.8069 78.6236 68.1035C75.2699 68.3911 73.6815 65.1382 73.6815 65.1382L76.0537 83.1948C73.2663 84.4995 70.2259 85.136 66.6953 84.5114C63.56 74.3306 62.3749 61.1667 62.1416 46.5063C64.6799 46.6645 69.707 46.881 71.5069 48.0384C74.7361 50.1141 78.7225 57.5273 78.7225 57.5273L83.3681 51.2014L87.9148 55.4516Z" fill="#A392EE"/>
<path d="M16.821 38.041C16.821 38.041 17.1739 32.1302 17.7759 32.409C18.3778 32.6877 19.5837 37.8275 19.5837 37.8275L18.2938 39.9092L16.821 38.041Z" fill="#6F3428"/>
<path d="M34.5703 144.77L34.7453 146.715C35.0537 150.149 32.5203 153.184 29.0855 153.492L28.5854 153.536C25.1516 153.845 22.1171 151.311 21.8087 147.877L21.6338 145.931L34.5703 144.77Z" fill="#FF7A45"/>
<path d="M26.1098 50.5788L13.1738 51.7412L21.6381 145.936L34.5741 144.773L26.1098 50.5788Z" fill="#FDC401"/>
<path opacity="0.3" d="M21.7676 49.0619L17.1731 49.4747L24.5923 132.04L29.1869 131.627L21.7676 49.0619Z" stroke="#6F3428" stroke-width="0.808815" stroke-miterlimit="10"/>
<path d="M34.5684 144.77L21.6358 145.933L21.2958 142.137L21.0586 139.5L20.3271 131.395L33.2637 130.233L33.9912 138.338L34.2284 140.975L34.5684 144.77Z" fill="#102048"/>
<path d="M33.9875 138.344L21.0544 139.506L21.2914 142.144L34.2245 140.981L33.9875 138.344Z" fill="#FDC401"/>
<path d="M13.1692 51.7395L16.7621 37.3391C16.7621 37.3391 18.0026 37.8897 19.507 36.9606L26.1057 50.5781L13.1692 51.7395Z" fill="#FF7A45"/>
<path d="M54.1949 37.774C54.1366 37.5615 53.1718 37.2699 52.9593 37.2106C52.6302 37.1196 52.2714 37.0752 51.9511 37.2205C50.7838 37.7483 50.94 39.4197 51.5449 40.2984C51.8879 40.7966 52.389 41.1791 52.9732 41.3462C53.1847 41.4065 55.1932 41.4312 55.1052 41.1079C55.1042 41.107 54.1968 37.7819 54.1949 37.774Z" fill="#F9B384"/>
<path d="M17.4393 71.3658C17.1359 70.413 16.1376 69.8792 15.1926 70.2054C13.7209 70.7135 12.4389 71.5754 12.2412 73.0422C12.0603 74.3776 12.7285 78.6436 15.7116 79.1912L15.4684 76.9999C15.4684 76.9999 17.295 76.5739 17.6598 75.7821C17.9158 75.2276 17.9326 72.9137 17.4393 71.3658Z" fill="#F9B384"/>
<path d="M72.7702 56.6951C72.9273 57.6281 73.0608 58.5652 73.1883 59.5012C73.3207 60.4372 73.4265 61.3772 73.5461 62.3153L73.8525 65.1352C73.9414 66.0762 74.0294 67.0182 74.0867 67.9631L73.9335 67.9809C73.7714 67.0478 73.64 66.1118 73.5095 65.1748L73.1566 62.3607C73.0568 61.4207 72.9431 60.4817 72.8562 59.5407C72.7642 58.5998 72.6782 57.6578 72.616 56.7129L72.7702 56.6951Z" fill="#1F3C88"/>
<path d="M46.1811 56.544C46.1791 57.5928 46.1534 58.6395 46.1227 59.6863C46.0961 60.733 46.0427 61.7797 46.0031 62.8255L45.8321 65.9628C45.762 67.0075 45.6898 68.0533 45.589 69.0961L45.4348 69.0892C45.4318 68.0404 45.4585 66.9937 45.4882 65.946L45.6137 62.8067C45.674 61.761 45.7185 60.7152 45.7906 59.6695C45.8588 58.6247 45.932 57.5789 46.0288 56.5352L46.1811 56.544Z" fill="#1F3C88"/>
<path d="M58.9916 37.6736C59.0756 38.0463 58.9214 38.3982 58.6486 38.4594C58.3758 38.5207 58.0862 38.2677 58.0032 37.895C57.9191 37.5224 58.0733 37.1705 58.3461 37.1092C58.6189 37.048 58.9076 37.301 58.9916 37.6736Z" fill="#102048"/>
<path d="M62.932 37.2125C62.9162 37.594 62.676 37.8945 62.3963 37.8827C62.1166 37.8708 61.9031 37.5515 61.9199 37.17C61.9357 36.7885 62.1759 36.488 62.4556 36.4999C62.7343 36.5117 62.9478 36.83 62.932 37.2125Z" fill="#102048"/>
<path d="M60.7345 37.526C60.87 37.8532 60.8482 38.2051 60.9362 38.4729C60.9807 38.6083 61.0419 38.7279 61.1279 38.8011C61.207 38.8732 61.3355 38.9207 61.4986 38.9839C61.6666 39.0492 61.8455 39.1648 61.9671 39.3368C62.0966 39.5038 62.1322 39.7944 62.0146 39.9842C61.9098 40.174 61.7586 40.2788 61.6281 40.3746C61.4927 40.4656 61.3622 40.5634 61.2208 40.6484L61.119 40.5318C61.2228 40.4033 61.3365 40.2877 61.4462 40.1661C61.5589 40.0504 61.6617 39.9378 61.7012 39.833C61.7852 39.6501 61.6053 39.4505 61.3464 39.3467C61.2129 39.2854 61.0202 39.232 60.864 39.0729C60.7138 38.9197 60.6397 38.7289 60.61 38.55C60.5448 38.1833 60.6189 37.87 60.5843 37.5655L60.7345 37.526Z" fill="#E28B6D"/>
<path d="M57.1035 36.6731C57.1618 36.4388 57.3052 36.2164 57.5068 36.0563C57.7055 35.8912 57.9654 35.8013 58.2234 35.7884C58.7423 35.7568 59.2563 36.0524 59.4698 36.4892L59.3492 36.5851C59.0062 36.3153 58.6277 36.168 58.2432 36.1818C57.8567 36.1917 57.5058 36.3904 57.2439 36.7393L57.1035 36.6731Z" fill="#102048"/>
<path d="M61.1846 36.189C61.2429 36.0061 61.3457 35.8321 61.4949 35.6898C61.6412 35.5435 61.8448 35.4466 62.0564 35.4121C62.4814 35.3419 62.937 35.5583 63.1051 35.9349L62.9815 36.0278C62.7038 35.841 62.4003 35.762 62.1147 35.8015C61.9714 35.8203 61.8359 35.8746 61.7015 35.9527C61.5701 36.0348 61.4495 36.1474 61.318 36.268L61.1846 36.189Z" fill="#102048"/>
<path d="M58.9971 41.354C59.687 42.4344 60.6072 42.552 61.3179 41.4143L58.9971 41.354Z" fill="white"/>
<path opacity="0.4" d="M63.7652 37.9888C63.7613 38.7479 63.695 39.8065 63.5685 40.5656C63.0901 40.4114 62.7422 39.9646 62.7422 39.4309C62.7422 38.8339 63.1998 38.0797 63.7652 37.9888Z" fill="#FC8879"/>
<path opacity="0.4" d="M57.3132 41.4134C58.0174 41.4134 58.5882 40.8426 58.5882 40.1384C58.5882 39.4342 58.0174 38.8633 57.3132 38.8633C56.609 38.8633 56.0381 39.4342 56.0381 40.1384C56.0381 40.8426 56.609 41.4134 57.3132 41.4134Z" fill="#FC8879"/>
<path d="M53.3567 39.0429C53.1047 38.8719 52.8734 38.6841 52.644 38.5734C52.5304 38.5171 52.4236 38.4835 52.3297 38.4914C52.2338 38.4983 52.1241 38.5546 52.0006 38.6426L51.8711 38.5586C51.9245 38.4005 52.0381 38.2235 52.2467 38.1543C52.4533 38.0822 52.6638 38.1405 52.819 38.2206C53.1343 38.3925 53.3488 38.6456 53.4803 38.949L53.3567 39.0429Z" fill="#E28B6D"/>
<path opacity="0.6" d="M17.6594 75.7831L15.8239 81.3588L15.4453 77.0018C16.586 76.7537 17.2087 76.2971 17.6594 75.7831Z" fill="#6F3428"/>
</svg>
